<svg width="20" height="17" viewBox="0 0 20 17" fill="none" xmlns="http://www.w3.org/2000/svg">
<path d="M18.6363 1.40737C17.8789 1.94161 17.0404 2.35022 16.1529 2.61746C15.6765 2.06976 15.0435 1.68157 14.3393 1.50538C13.6352 1.32919 12.8939 1.37351 12.2158 1.63234C11.5377 1.89118 10.9554 2.35203 10.5477 2.95258C10.14 3.55313 9.9266 4.2644 9.93633 4.99019V5.78109C8.54641 5.81713 7.16915 5.50887 5.92722 4.88377C4.68528 4.25866 3.61722 3.33611 2.81815 2.19828C2.81815 2.19828 -0.34549 9.31646 6.77269 12.4801C5.14384 13.5858 3.20344 14.1402 1.23633 14.0619C8.35451 18.0165 17.0545 14.0619 17.0545 4.96646C17.0538 4.74615 17.0326 4.52639 16.9912 4.31C17.7984 3.51395 18.3681 2.50888 18.6363 1.40737V1.40737Z" stroke="white" stroke-linecap="round" stroke-linejoin="round"/>
</svg>
