<svg width="18" height="18" viewBox="0 0 18 18" fill="none" xmlns="http://www.w3.org/2000/svg">
<path d="M13.0472 0.818359H5.13814C2.9541 0.818359 1.18359 2.58887 1.18359 4.7729V12.682C1.18359 14.866 2.9541 16.6365 5.13814 16.6365H13.0472C15.2313 16.6365 17.0018 14.866 17.0018 12.682V4.7729C17.0018 2.58887 15.2313 0.818359 13.0472 0.818359Z" stroke="white" stroke-linecap="round" stroke-linejoin="round"/>
<path d="M12.2559 8.22986C12.3536 8.88809 12.2411 9.56034 11.9346 10.151C11.6282 10.7416 11.1433 11.2206 10.5489 11.5198C9.95449 11.819 9.2809 11.9231 8.62392 11.8174C7.96695 11.7117 7.36003 11.4015 6.8895 10.9309C6.41897 10.4604 6.10879 9.8535 6.00307 9.19652C5.89736 8.53954 6.00149 7.86596 6.30066 7.27157C6.59983 6.67719 7.0788 6.19227 7.66945 5.8858C8.2601 5.57932 8.93235 5.46689 9.59058 5.5645C10.262 5.66406 10.8836 5.97693 11.3636 6.45688C11.8435 6.93684 12.1564 7.55844 12.2559 8.22986Z" stroke="white" stroke-linecap="round" stroke-linejoin="round"/>
<path d="M13.4414 4.37793H13.4501" stroke="white" stroke-linecap="round" stroke-linejoin="round"/>
</svg>
