<svg width="405" height="345" viewBox="0 0 405 345" fill="none" xmlns="http://www.w3.org/2000/svg">
<path opacity="0.6" d="M210.169 15.9577L201.517 20.9721V20.9721L210.169 15.9577ZM385.848 339.014C388.618 343.793 394.736 345.421 399.514 342.652C404.293 339.882 405.921 333.764 403.152 328.986L385.848 339.014ZM2.33945 326.001C-0.42169 330.784 1.21742 336.899 6.0005 339.661C10.7836 342.422 16.8994 340.783 19.6605 335.999L2.33945 326.001ZM192.857 15.9726L184.196 10.9731V10.9731L192.857 15.9726ZM201.517 20.9721L385.848 339.014L403.152 328.986L218.821 10.9432L201.517 20.9721ZM19.6605 335.999L201.517 20.9721L184.196 10.9731L2.33945 326.001L19.6605 335.999ZM218.821 10.9432C211.108 -2.3649 191.886 -2.34821 184.196 10.9731L201.517 20.9721C201.532 20.9469 201.542 20.9339 201.544 20.9301C201.547 20.9263 201.546 20.9282 201.541 20.9337C201.535 20.9391 201.528 20.9456 201.519 20.9523C201.51 20.959 201.501 20.9644 201.494 20.9685C201.479 20.9769 201.472 20.9778 201.478 20.9763C201.481 20.9756 201.486 20.9745 201.493 20.9736C201.5 20.9727 201.509 20.9721 201.517 20.9721C201.526 20.9721 201.534 20.9727 201.541 20.9735C201.548 20.9744 201.554 20.9755 201.556 20.9762C201.562 20.9777 201.556 20.9769 201.541 20.9685C201.533 20.9643 201.525 20.9589 201.516 20.9523C201.507 20.9456 201.499 20.9391 201.494 20.9337C201.488 20.9282 201.487 20.9264 201.49 20.9302C201.493 20.9339 201.503 20.9469 201.517 20.9721L218.821 10.9432Z" fill="#FF4E35"/>
</svg>
