<svg width="202" height="41" viewBox="0 0 202 41" fill="none" xmlns="http://www.w3.org/2000/svg">
<g clip-path="url(#clip0_1_49)">
<path d="M12.1997 20.2285L20.0583 12.2666L27.9211 20.2328L32.4938 15.5998L20.0583 3L7.62695 15.5956L12.1997 20.2285Z" fill="white"/>
<path d="M8.97106 20.4994L4.39844 15.8665L-0.174414 20.4996L4.39821 25.1325L8.97106 20.4994Z" fill="white"/>
<path d="M12.2005 26.7715L20.0592 34.7334L27.9216 26.7676L32.4969 31.398L32.4947 31.4006L20.0592 44L7.62749 31.4048L7.62109 31.3983L12.2005 26.7715Z" fill="white"/>
<path d="M35.7201 28.1346L40.293 23.5015L35.7203 18.8686L31.1475 23.5017L35.7201 28.1346Z" fill="white"/>
<path d="M24.6966 23.4976H24.6985L20.0584 18.7963L16.6293 22.2706H16.6289L16.2352 22.6699L15.4224 23.4934L15.416 23.4998L15.4224 23.5066L20.0584 28.2038L24.6985 23.5024L24.7008 23.4998L24.6966 23.4976Z" fill="white"/>
<path d="M47.4219 12.9347H57.3673C59.8357 12.9347 61.7022 13.5765 62.9672 14.8602C63.9462 15.8543 64.4355 17.0865 64.4355 18.5563V18.6185C64.4355 19.2396 64.3598 19.7885 64.2073 20.2645C64.0552 20.7412 63.8519 21.1702 63.5978 21.5533C63.3444 21.9367 63.0497 22.2732 62.7147 22.5627C62.3795 22.8529 62.0193 23.1016 61.6335 23.3082C62.8742 23.7848 63.851 24.4315 64.5631 25.2495C65.2748 26.0678 65.6312 27.2015 65.6312 28.6506V28.7125C65.6312 29.7066 65.4426 30.5761 65.0652 31.3219C64.6877 32.067 64.1469 32.6884 63.4428 33.1855C62.7387 33.6826 61.892 34.055 60.9025 34.3037C59.913 34.5521 58.8164 34.6761 57.6131 34.6761H47.4219V12.9347ZM56.373 21.7243C57.4155 21.7243 58.2433 21.5436 58.856 21.1809C59.4691 20.8186 59.7756 20.2334 59.7756 19.4261V19.3639C59.7756 18.6395 59.5096 18.0858 58.9785 17.7024C58.4469 17.3193 57.6805 17.1276 56.6795 17.1276H52.0198V21.7243H56.373ZM57.63 30.4835C58.6723 30.4835 59.4892 30.2924 60.0824 29.909C60.675 29.5259 60.9716 28.9304 60.9716 28.1228V28.061C60.9716 27.3362 60.6954 26.7618 60.1438 26.3369C59.5918 25.913 58.7029 25.7006 57.4766 25.7006H52.0198V30.4838H57.63V30.4835Z" fill="white"/>
<path d="M71.5527 12.9347H76.2741V34.6767H71.5527V12.9347Z" fill="white"/>
<path d="M83.4258 12.9347H87.7783L97.8336 26.3217V12.9347H102.493V34.6767H98.4777L88.0851 20.8552V34.6767H83.4258V12.9347Z" fill="white"/>
<path d="M116.785 12.7795H121.138L130.335 34.6767H125.4L123.438 29.8005H114.363L112.402 34.6767H107.588L116.785 12.7795ZM121.752 25.5759L118.9 18.5255L116.05 25.5759H121.752Z" fill="white"/>
<path d="M135.432 12.9347H139.785L149.84 26.3217V12.9347H154.499V34.6767H150.484L140.091 20.8552V34.6767H135.432V12.9347Z" fill="white"/>
<path d="M171.49 35.049C169.916 35.049 168.455 34.7589 167.106 34.1796C165.757 33.6003 164.592 32.8078 163.611 31.8033C162.63 30.7992 161.863 29.6136 161.312 28.2471C160.76 26.8802 160.484 25.4204 160.484 23.8673V23.8055C160.484 22.2524 160.76 20.7981 161.312 19.4416C161.864 18.0854 162.63 16.8947 163.611 15.8698C164.592 14.8449 165.767 14.0369 167.136 13.4469C168.505 12.8569 170.018 12.5619 171.674 12.5619C172.674 12.5619 173.589 12.6451 174.417 12.8103C175.244 12.9764 175.995 13.2037 176.67 13.4935C177.345 13.7837 177.968 14.1357 178.541 14.5495C179.112 14.964 179.644 15.4193 180.134 15.9164L177.13 19.426C176.291 18.6602 175.439 18.0592 174.57 17.6246C173.701 17.19 172.726 16.9724 171.643 16.9724C170.743 16.9724 169.91 17.1486 169.145 17.5006C168.378 17.8526 167.719 18.339 167.167 18.9601C166.616 19.5812 166.186 20.301 165.879 21.1187C165.573 21.937 165.42 22.8116 165.42 23.7433V23.8051C165.42 24.7368 165.573 25.6173 165.879 26.445C166.186 27.2737 166.609 27.9981 167.152 28.6192C167.693 29.2402 168.347 29.7325 169.113 30.0948C169.88 30.4575 170.723 30.6382 171.643 30.6382C172.869 30.6382 173.906 30.4106 174.754 29.9549C175.602 29.5 176.446 28.8785 177.283 28.0913L180.288 31.1664C179.736 31.7671 179.163 32.3056 178.571 32.7813C177.978 33.258 177.329 33.6666 176.624 34.0086C175.919 34.3499 175.147 34.6093 174.31 34.7848C173.471 34.9606 172.532 35.049 171.49 35.049Z" fill="white"/>
<path d="M185.844 12.9347H201.999V17.1901H190.504V21.6006H200.62V25.8557H190.504V30.4216H202.153V34.6767H185.844V12.9347Z" fill="white"/>
</g>
<defs>
<clipPath id="clip0_1_49">
<rect width="202" height="41" fill="white"/>
</clipPath>
</defs>
</svg>
