<svg width="202" height="47" viewBox="0 0 202 47" fill="none" xmlns="http://www.w3.org/2000/svg">
<g clip-path="url(#clip0_1_30)">
<path d="M57.2708 27.0432C57.2679 27.2066 57.1954 27.3623 57.0692 27.4762C56.943 27.5901 56.7734 27.653 56.5975 27.6512H44.1969C44.5149 30.4996 46.8154 33.105 50.0699 33.105C52.2956 33.105 53.9416 32.3234 55.176 30.6733C55.2335 30.5866 55.313 30.5144 55.4076 30.4629C55.5021 30.4114 55.6089 30.3823 55.7184 30.3781C55.8001 30.3759 55.8814 30.3892 55.9573 30.4173C56.0333 30.4453 56.1022 30.4875 56.16 30.5411C56.2178 30.5948 56.2632 30.6588 56.2934 30.7294C56.3236 30.7999 56.338 30.8754 56.3356 30.9512C56.3361 31.056 56.3036 31.1586 56.2421 31.2465C54.989 33.2613 52.5014 34.2513 50.0699 34.2513C45.899 34.2513 42.9064 30.7775 42.9064 27.078C42.9064 23.3784 45.8803 19.9047 50.0699 19.9047C54.2595 19.9047 57.2521 23.3437 57.2708 27.0432ZM55.9429 26.5048C55.681 23.6563 53.3243 21.051 50.0699 21.051C46.8154 21.051 44.5149 23.6563 44.1969 26.5048H55.9429Z" fill="white"/>
<path d="M72.3463 20.1825C72.5085 20.1869 72.6628 20.2487 72.7775 20.3552C72.8923 20.4618 72.9588 20.6051 72.9635 20.7557C72.9658 20.8316 72.9515 20.9071 72.9213 20.9776C72.8911 21.0481 72.8457 21.1121 72.7879 21.1658C72.7301 21.2195 72.6612 21.2616 72.5852 21.2896C72.5093 21.3177 72.428 21.331 72.3463 21.3289H69.017V33.4697C69.0156 33.6213 68.9501 33.7663 68.8346 33.8735C68.7192 33.9806 68.5631 34.0415 68.3998 34.0428C68.2376 34.0385 68.0833 33.9767 67.9686 33.8701C67.8538 33.7636 67.7873 33.6203 67.7826 33.4697V21.3289H64.5843C64.5026 21.331 64.4213 21.3177 64.3453 21.2896C64.2694 21.2616 64.2004 21.2195 64.1426 21.1658C64.0849 21.1121 64.0395 21.0481 64.0093 20.9776C63.9791 20.9071 63.9647 20.8316 63.967 20.7557C63.9685 20.6041 64.034 20.4591 64.1494 20.3519C64.2649 20.2447 64.421 20.1839 64.5843 20.1825H67.7826V15.7535C67.7829 15.6067 67.8396 15.4649 67.9424 15.3534C68.0453 15.242 68.1876 15.1683 68.3437 15.1456C68.431 15.1348 68.5197 15.1417 68.6039 15.1657C68.688 15.1897 68.7656 15.2303 68.8313 15.2847C68.897 15.3391 68.9493 15.4061 68.9846 15.481C69.0199 15.5559 69.0373 15.637 69.0357 15.7187V20.1825H72.3463Z" fill="white"/>
<path d="M92.6391 26.0531V33.4001C92.6344 33.5508 92.5679 33.694 92.4531 33.8006C92.3384 33.9072 92.1841 33.9689 92.0219 33.9733C91.9402 33.9755 91.8589 33.9621 91.783 33.9341C91.707 33.906 91.638 33.8639 91.5803 33.8102C91.5225 33.7566 91.4771 33.6925 91.4469 33.622C91.4167 33.5515 91.4023 33.476 91.4047 33.4001V26.0531C91.4047 23.5694 89.8897 21.103 86.9158 21.103C83.1002 21.103 81.4543 24.1947 81.6787 27.3732C81.6787 27.46 81.7161 27.8248 81.7161 27.8769V33.3828C81.7158 33.5295 81.6591 33.6714 81.5563 33.7828C81.4534 33.8942 81.3112 33.9679 81.155 33.9907C81.0677 34.0014 80.979 33.9946 80.8948 33.9706C80.8107 33.9466 80.7331 33.906 80.6674 33.8515C80.6017 33.7971 80.5494 33.7302 80.5141 33.6553C80.4789 33.5804 80.4614 33.4993 80.463 33.4175V9.2575C80.4645 9.1059 80.5299 8.9609 80.6454 8.85371C80.7608 8.74651 80.917 8.68569 81.0802 8.68433C81.2424 8.6887 81.3967 8.75048 81.5114 8.85704C81.6262 8.9636 81.6927 9.10686 81.6974 9.2575V22.9094C82.7635 21.1378 84.6713 19.9393 86.8971 19.9393C90.563 19.9393 92.6391 22.9094 92.6391 26.0531Z" fill="white"/>
<path d="M114.915 27.0432C114.912 27.2066 114.84 27.3623 114.714 27.4762C114.587 27.5901 114.418 27.653 114.242 27.6512H101.841C102.159 30.4996 104.46 33.105 107.714 33.105C109.94 33.105 111.586 32.3234 112.82 30.6733C112.878 30.5866 112.957 30.5144 113.052 30.4629C113.147 30.4114 113.253 30.3823 113.363 30.3781C113.445 30.3759 113.526 30.3892 113.602 30.4173C113.678 30.4453 113.747 30.4875 113.804 30.5411C113.862 30.5948 113.908 30.6588 113.938 30.7294C113.968 30.7999 113.982 30.8754 113.98 30.9512C113.98 31.056 113.948 31.1586 113.887 31.2465C112.633 33.2613 110.146 34.2513 107.714 34.2513C103.543 34.2513 100.551 30.7775 100.551 27.078C100.551 23.3784 103.525 19.9047 107.714 19.9047C111.867 19.9047 114.897 23.3437 114.915 27.0432ZM113.569 26.5048C113.307 23.6563 110.95 21.051 107.696 21.051C104.441 21.051 102.141 23.6563 101.823 26.5048H113.569Z" fill="white"/>
<path d="M130.159 20.7211C130.171 20.8753 130.117 21.0276 130.008 21.1447C129.9 21.2619 129.746 21.3343 129.58 21.3463C125.932 21.85 124.286 24.6117 124.286 27.8249V33.3308C124.286 33.4776 124.229 33.6194 124.127 33.7308C124.024 33.8423 123.881 33.916 123.725 33.9387C123.638 33.9495 123.549 33.9426 123.465 33.9186C123.381 33.8946 123.303 33.854 123.238 33.7996C123.172 33.7451 123.12 33.6782 123.084 33.6033C123.049 33.5284 123.032 33.4473 123.033 33.3655V20.8079C123.034 20.6611 123.09 20.5193 123.193 20.4079C123.296 20.2964 123.438 20.2227 123.594 20.2C123.682 20.1892 123.77 20.1961 123.855 20.2201C123.939 20.2441 124.016 20.2847 124.082 20.3391C124.148 20.3936 124.2 20.4605 124.235 20.5354C124.271 20.6103 124.288 20.6914 124.286 20.7732V23.3264C125.315 21.7111 127.354 20.1826 129.486 20.1826C129.804 20.1826 130.159 20.391 130.159 20.7211Z" fill="white"/>
<path d="M150.546 27.0432C150.543 27.2066 150.471 27.3623 150.344 27.4762C150.218 27.5901 150.049 27.653 149.873 27.6512H137.472C137.79 30.4996 140.091 33.105 143.345 33.105C145.571 33.105 147.217 32.3234 148.451 30.6733C148.509 30.5866 148.588 30.5144 148.683 30.4629C148.777 30.4114 148.884 30.3823 148.994 30.3781C149.075 30.3759 149.157 30.3892 149.233 30.4173C149.309 30.4453 149.378 30.4875 149.435 30.5411C149.493 30.5948 149.538 30.6588 149.569 30.7294C149.599 30.7999 149.613 30.8754 149.611 30.9512C149.611 31.056 149.579 31.1586 149.517 31.2465C148.264 33.2613 145.777 34.2513 143.345 34.2513C139.174 34.2513 136.182 30.7775 136.182 27.078C136.182 23.3784 139.156 19.9047 143.345 19.9047C147.535 19.9047 150.527 23.3437 150.546 27.0432ZM149.218 26.5048C148.956 23.6563 146.6 21.051 143.345 21.051C140.091 21.051 137.79 23.6563 137.472 26.5048H149.218Z" fill="white"/>
<path d="M170.596 20.8599V33.4696C170.592 33.6203 170.525 33.7635 170.411 33.8701C170.296 33.9767 170.141 34.0385 169.979 34.0428C169.898 34.045 169.816 34.0316 169.74 34.0036C169.664 33.9755 169.595 33.9334 169.538 33.8797C169.48 33.8261 169.435 33.762 169.404 33.6915C169.374 33.621 169.36 33.5455 169.362 33.4696V31.0728C168.333 32.966 166.519 34.3381 164.2 34.3381C160.515 34.3381 158.477 31.368 158.477 28.2243V20.8425C158.478 20.6909 158.543 20.5459 158.659 20.4387C158.774 20.3315 158.93 20.2707 159.094 20.2694C159.256 20.2737 159.41 20.3355 159.525 20.4421C159.64 20.5486 159.706 20.6919 159.711 20.8425V28.2243C159.711 30.708 161.226 33.1744 164.2 33.1744C168.371 33.1744 169.362 29.5443 169.362 25.5321V20.8252C169.363 20.7322 169.389 20.641 169.436 20.559C169.483 20.477 169.551 20.4068 169.633 20.354C169.716 20.3013 169.81 20.2677 169.91 20.256C170.009 20.2443 170.11 20.2548 170.204 20.2867C170.321 20.3375 170.421 20.4184 170.49 20.52C170.56 20.6215 170.597 20.7395 170.596 20.8599Z" fill="white"/>
<path d="M201.999 26.0012V33.3829C201.995 33.5335 201.928 33.6768 201.813 33.7834C201.699 33.8899 201.544 33.9517 201.382 33.9561C201.3 33.9582 201.219 33.9449 201.143 33.9169C201.067 33.8888 200.998 33.8467 200.94 33.793C200.883 33.7393 200.837 33.6753 200.807 33.6048C200.777 33.5343 200.762 33.4588 200.765 33.3829V26.0012C200.765 23.5174 199.25 21.0858 196.276 21.0858C192.535 21.0858 191.114 24.8027 191.114 27.6859V33.3829C191.109 33.5335 191.042 33.6768 190.928 33.7834C190.813 33.8899 190.659 33.9517 190.496 33.9561C190.415 33.9582 190.333 33.9449 190.258 33.9169C190.182 33.8888 190.113 33.8467 190.055 33.793C189.997 33.7393 189.952 33.6753 189.922 33.6048C189.891 33.5343 189.877 33.4588 189.879 33.3829V26.0012C189.879 23.5174 188.364 21.0858 185.39 21.0858C181.612 21.0858 180.06 23.8474 180.191 27.5296C180.191 27.6165 180.228 27.7728 180.191 27.8249V33.3655C180.19 33.5123 180.134 33.6541 180.031 33.7656C179.928 33.877 179.786 33.9507 179.63 33.9735C179.542 33.9842 179.454 33.9774 179.369 33.9533C179.285 33.9293 179.208 33.8887 179.142 33.8343C179.076 33.7799 179.024 33.7129 178.989 33.638C178.953 33.5631 178.936 33.482 178.938 33.4003V20.8079C178.938 20.6611 178.995 20.5193 179.097 20.4079C179.2 20.2964 179.343 20.2227 179.499 20.2C179.586 20.1892 179.675 20.1961 179.759 20.2201C179.843 20.2441 179.921 20.2847 179.986 20.3391C180.052 20.3936 180.104 20.4605 180.14 20.5354C180.175 20.6103 180.192 20.6914 180.191 20.7732V22.8748C181.257 21.1032 183.165 19.9395 185.39 19.9395C187.915 19.9395 189.879 21.4332 190.684 23.6043C191.712 21.4505 193.714 19.9395 196.276 19.9395C199.923 19.9395 201.999 22.8748 201.999 26.0012Z" fill="white"/>
<path opacity="0.6" d="M15.5241 17.3862L0 23.9343L15.5241 32.4624L31.0669 23.9343L15.5241 17.3862Z" fill="white"/>
<path opacity="0.45" d="M0 23.9342L15.5241 32.4623V0L0 23.9342Z" fill="white"/>
<path opacity="0.8" d="M15.5234 0V32.4623L31.0662 23.9342L15.5234 0Z" fill="white"/>
<path opacity="0.45" d="M0 26.6785L15.5241 47V35.1892L0 26.6785Z" fill="#8A8DA1"/>
<path opacity="0.8" d="M15.5234 35.1892V47L31.0662 26.6785L15.5234 35.1892Z" fill="#8A8DA1"/>
</g>
<defs>
<clipPath id="clip0_1_30">
<rect width="202" height="47" fill="white"/>
</clipPath>
</defs>
</svg>
