<svg width="288" height="50" viewBox="0 0 288 50" fill="none" xmlns="http://www.w3.org/2000/svg">
<path d="M73.3083 35.4C71.7883 35.4 70.4416 35.0667 69.2683 34.4C68.1216 33.7333 67.2016 32.8933 66.5083 31.88L66.9483 30.72V35H63.2283V4.04H66.9083V22.24L66.7883 20.84C67.4549 19.9333 68.4016 19.2 69.6283 18.64C70.8816 18.0533 72.2683 17.76 73.7883 17.76C75.2816 17.76 76.6416 18.12 77.8683 18.84C79.0949 19.56 80.0683 20.5733 80.7883 21.88C81.5349 23.16 81.9083 24.6933 81.9083 26.48C81.9083 28.3467 81.5083 29.9467 80.7083 31.28C79.9349 32.6133 78.8949 33.64 77.5883 34.36C76.2816 35.0533 74.8549 35.4 73.3083 35.4ZM72.5483 32.24C73.6149 32.24 74.5749 31.9867 75.4283 31.48C76.2816 30.9733 76.9483 30.2933 77.4283 29.44C77.9083 28.56 78.1483 27.56 78.1483 26.44C78.1483 25.3733 77.8949 24.4133 77.3883 23.56C76.9083 22.68 76.2416 21.9867 75.3883 21.48C74.5616 20.9733 73.6149 20.72 72.5483 20.72C71.6416 20.72 70.8016 20.8933 70.0283 21.24C69.2549 21.5867 68.6016 22.0667 68.0683 22.68C67.5349 23.2667 67.1616 23.96 66.9483 24.76V28.08C67.1616 28.88 67.5216 29.6 68.0283 30.24C68.5349 30.8533 69.1749 31.3467 69.9483 31.72C70.7216 32.0667 71.5883 32.24 72.5483 32.24ZM90.9392 4.04H94.6592V35H90.9392V4.04ZM103.655 26.56C103.655 24.9067 104.042 23.4133 104.815 22.08C105.615 20.7467 106.709 19.6933 108.095 18.92C109.482 18.1467 111.055 17.76 112.815 17.76C114.629 17.76 116.215 18.1467 117.575 18.92C118.935 19.6933 119.989 20.7467 120.735 22.08C121.482 23.4133 121.855 24.9067 121.855 26.56C121.855 28.2133 121.482 29.72 120.735 31.08C119.989 32.4133 118.922 33.4667 117.535 34.24C116.175 35.0133 114.589 35.4 112.775 35.4C111.015 35.4 109.442 35.04 108.055 34.32C106.695 33.5733 105.615 32.5467 104.815 31.24C104.042 29.9067 103.655 28.3467 103.655 26.56ZM107.375 26.6C107.375 27.6667 107.615 28.64 108.095 29.52C108.575 30.3733 109.215 31.0533 110.015 31.56C110.842 32.0667 111.749 32.32 112.735 32.32C113.775 32.32 114.695 32.0667 115.495 31.56C116.322 31.0533 116.962 30.3733 117.415 29.52C117.869 28.64 118.095 27.6667 118.095 26.6C118.095 25.5333 117.869 24.5733 117.415 23.72C116.962 22.84 116.322 22.1467 115.495 21.64C114.695 21.1067 113.775 20.84 112.735 20.84C111.722 20.84 110.802 21.1067 109.975 21.64C109.175 22.1733 108.535 22.88 108.055 23.76C107.602 24.6133 107.375 25.56 107.375 26.6ZM144.332 33.48C143.586 34.0667 142.692 34.5333 141.652 34.88C140.612 35.2267 139.572 35.4 138.532 35.4C136.719 35.4 135.132 35.04 133.772 34.32C132.412 33.6 131.346 32.6 130.572 31.32C129.826 30.0133 129.452 28.48 129.452 26.72C129.452 24.96 129.852 23.4267 130.652 22.12C131.479 20.8133 132.546 19.8133 133.852 19.12C135.186 18.4 136.612 18.04 138.132 18.04C139.466 18.04 140.652 18.2267 141.692 18.6C142.759 18.9733 143.666 19.48 144.412 20.12L142.572 22.52C142.092 22.1467 141.506 21.8133 140.812 21.52C140.119 21.2267 139.332 21.08 138.452 21.08C137.492 21.08 136.599 21.3333 135.772 21.84C134.972 22.32 134.332 22.9867 133.852 23.84C133.399 24.6933 133.172 25.6533 133.172 26.72C133.172 27.7333 133.412 28.68 133.892 29.56C134.372 30.4133 135.039 31.0933 135.892 31.6C136.746 32.08 137.719 32.32 138.812 32.32C139.532 32.32 140.186 32.2133 140.772 32C141.386 31.7867 141.932 31.4933 142.412 31.12L144.332 33.48ZM153.135 35V4.04H156.855V35H153.135ZM160.855 24L168.455 35H164.095L158.375 26.08L160.855 24ZM155.695 29.72L155.335 26.16L165.375 18.08L167.655 20.04L155.695 29.72ZM189.871 33.48C189.125 34.0667 188.231 34.5333 187.191 34.88C186.151 35.2267 185.111 35.4 184.071 35.4C182.258 35.4 180.671 35.04 179.311 34.32C177.951 33.6 176.885 32.6 176.111 31.32C175.365 30.0133 174.991 28.48 174.991 26.72C174.991 24.96 175.391 23.4267 176.191 22.12C177.018 20.8133 178.085 19.8133 179.391 19.12C180.725 18.4 182.151 18.04 183.671 18.04C185.005 18.04 186.191 18.2267 187.231 18.6C188.298 18.9733 189.205 19.48 189.951 20.12L188.111 22.52C187.631 22.1467 187.045 21.8133 186.351 21.52C185.658 21.2267 184.871 21.08 183.991 21.08C183.031 21.08 182.138 21.3333 181.311 21.84C180.511 22.32 179.871 22.9867 179.391 23.84C178.938 24.6933 178.711 25.6533 178.711 26.72C178.711 27.7333 178.951 28.68 179.431 29.56C179.911 30.4133 180.578 31.0933 181.431 31.6C182.285 32.08 183.258 32.32 184.351 32.32C185.071 32.32 185.725 32.2133 186.311 32C186.925 31.7867 187.471 31.4933 187.951 31.12L189.871 33.48ZM198.674 35V4.04H202.314V22.28L202.234 21.6C202.794 20.5067 203.647 19.6 204.794 18.88C205.967 18.16 207.34 17.8 208.914 17.8C210.487 17.8 211.767 18.2667 212.754 19.2C213.767 20.1067 214.287 21.2933 214.314 22.76V35H210.554V24.08C210.527 23.1733 210.26 22.44 209.754 21.88C209.274 21.2933 208.514 21 207.474 21C206.514 21 205.647 21.28 204.874 21.84C204.1 22.3733 203.487 23.1067 203.034 24.04C202.607 24.9733 202.394 26.04 202.394 27.24V35H198.674ZM231.663 35.4C230.116 35.4 228.703 35.0667 227.423 34.4C226.17 33.7333 225.17 32.76 224.423 31.48C223.703 30.1733 223.343 28.5867 223.343 26.72C223.343 24.88 223.73 23.2933 224.503 21.96C225.276 20.6 226.303 19.56 227.583 18.84C228.89 18.12 230.316 17.76 231.863 17.76C233.41 17.76 234.716 18.12 235.783 18.84C236.85 19.5333 237.663 20.36 238.223 21.32L237.983 21.96L238.343 18.44H241.783V35H238.063V30.68L238.463 31.64C238.356 31.9067 238.116 32.2533 237.743 32.68C237.396 33.08 236.916 33.4933 236.303 33.92C235.716 34.3467 235.036 34.7067 234.263 35C233.49 35.2667 232.623 35.4 231.663 35.4ZM232.663 32.32C233.596 32.32 234.436 32.1467 235.183 31.8C235.93 31.4533 236.543 30.9733 237.023 30.36C237.53 29.72 237.876 28.96 238.063 28.08V24.84C237.85 24.04 237.476 23.3467 236.943 22.76C236.41 22.1467 235.77 21.68 235.023 21.36C234.276 21.0133 233.45 20.84 232.543 20.84C231.556 20.84 230.65 21.08 229.823 21.56C228.996 22.04 228.33 22.7067 227.823 23.56C227.343 24.4133 227.103 25.4133 227.103 26.56C227.103 27.6267 227.356 28.6 227.863 29.48C228.37 30.36 229.05 31.0533 229.903 31.56C230.756 32.0667 231.676 32.32 232.663 32.32ZM252.22 18.44H255.94V35H252.22V18.44ZM251.94 12.44C251.94 11.8533 252.167 11.36 252.62 10.96C253.1 10.56 253.62 10.36 254.18 10.36C254.74 10.36 255.234 10.56 255.66 10.96C256.114 11.36 256.34 11.8533 256.34 12.44C256.34 13.0533 256.114 13.56 255.66 13.96C255.234 14.3333 254.74 14.52 254.18 14.52C253.62 14.52 253.1 14.32 252.62 13.92C252.167 13.52 251.94 13.0267 251.94 12.44ZM269.697 18.44L270.017 22.48L269.857 21.84C270.39 20.6133 271.257 19.64 272.457 18.92C273.657 18.1733 275.043 17.8 276.617 17.8C278.19 17.8 279.47 18.2667 280.457 19.2C281.47 20.1067 281.99 21.2933 282.017 22.76V35H278.257V24.08C278.23 23.1733 277.963 22.44 277.457 21.88C276.977 21.2933 276.217 21 275.177 21C274.217 21 273.35 21.2667 272.577 21.8C271.803 22.3333 271.19 23.0667 270.737 24C270.31 24.9333 270.097 26.0133 270.097 27.24V35H266.377V18.44H269.697Z" fill="white"/>
<path d="M33.8184 36.2479H26.6636C26.4263 36.2479 26.2343 36.0559 26.2343 35.8186V32.6705H21.1305V35.8186C21.1305 36.0559 20.9385 36.2479 20.7012 36.2479H13.5464C13.3091 36.2479 13.1171 36.0559 13.1171 35.8186V32.6705H8.01338V35.8186C8.01338 36.0559 7.82139 36.2479 7.58409 36.2479H0.429288C0.191987 36.2479 0 36.0559 0 35.8186V28.6638C0 28.4265 0.191987 28.2345 0.429288 28.2345H3.5774V23.1308H0.429288C0.191987 23.1308 0 22.9388 0 22.7015V15.5467C0 15.3094 0.191987 15.1174 0.429288 15.1174H3.5774V10.0136H0.429288C0.191987 10.0136 0 9.82164 0 9.58434V2.42953C0 2.19223 0.191987 2.00024 0.429288 2.00024H7.58409C7.82139 2.00024 8.01338 2.19223 8.01338 2.42953V5.57765H13.1171V2.42953C13.1171 2.19223 13.3091 2.00024 13.5464 2.00024H20.7012C20.9385 2.00024 21.1305 2.19223 21.1305 2.42953V5.57765H26.2331V2.42953C26.2331 2.19223 26.4251 2.00024 26.6624 2.00024H33.8172C34.0545 2.00024 34.2465 2.19223 34.2465 2.42953V9.58434C34.2465 9.82164 34.0545 10.0136 33.8172 10.0136H30.6691V15.1174H33.8184C34.0557 15.1174 34.2477 15.3094 34.2477 15.5467V22.7015C34.2477 22.9388 34.0557 23.1308 33.8184 23.1308H30.6703V28.2333H33.8184C34.0557 28.2333 34.2477 28.4253 34.2477 28.6626V35.8174C34.2477 36.0559 34.0557 36.2479 33.8184 36.2479ZM27.0929 35.3893H33.3879V29.0931H27.0929V35.3893ZM13.9757 35.3893H20.2719V29.0931H13.9757V35.3893ZM0.858577 35.3893H7.15481V29.0931H0.858577V35.3893ZM21.1305 31.8119H26.2331V28.6638C26.2331 28.4265 26.4251 28.2345 26.6624 28.2345H29.8105V23.1308H26.6636C26.4263 23.1308 26.2343 22.9388 26.2343 22.7015V19.5534H21.1305V22.7015C21.1305 22.9388 20.9385 23.1308 20.7012 23.1308H17.5531V28.2333H20.7012C20.9385 28.2333 21.1305 28.4253 21.1305 28.6626V31.8119ZM8.01338 31.8119H13.1171V28.6638C13.1171 28.4265 13.3091 28.2345 13.5464 28.2345H16.6945V23.1308H13.5464C13.3091 23.1308 13.1171 22.9388 13.1171 22.7015V19.5534H8.01338V22.7015C8.01338 22.9388 7.82139 23.1308 7.58409 23.1308H4.43598V28.2333H7.58409C7.82139 28.2333 8.01338 28.4253 8.01338 28.6626V31.8119ZM30.241 22.2722H33.3891V15.976H27.0929V22.2722H30.241ZM17.1238 22.2722H20.2719V15.976H13.9757V22.2722H17.1238ZM4.00669 22.2722H7.15481V15.976H0.858577V22.2722H4.00669ZM21.1305 18.6948H26.2331V15.5467C26.2331 15.3094 26.4251 15.1174 26.6624 15.1174H29.8105V10.0136H26.6636C26.4263 10.0136 26.2343 9.82164 26.2343 9.58434V6.43622H21.1305V9.58434C21.1305 9.82164 20.9385 10.0136 20.7012 10.0136H17.5531V15.1174H20.7012C20.9385 15.1174 21.1305 15.3094 21.1305 15.5467V18.6948ZM8.01338 18.6948H13.1171V15.5467C13.1171 15.3094 13.3091 15.1174 13.5464 15.1174H16.6945V10.0136H13.5464C13.3091 10.0136 13.1171 9.82164 13.1171 9.58434V6.43622H8.01338V9.58434C8.01338 9.82164 7.82139 10.0136 7.58409 10.0136H4.43598V15.1174H7.58409C7.82139 15.1174 8.01338 15.3094 8.01338 15.5467V18.6948ZM30.241 9.15505H33.3891V2.85882H27.0929V9.15505H30.241ZM17.1238 9.15505H20.2719V2.85882H13.9757V9.15505H17.1238ZM4.00669 9.15505H7.15481V2.85882H0.858577V9.15505H4.00669Z" fill="white"/>
</svg>
