<svg width="178" height="31" viewBox="0 0 178 31" fill="none" xmlns="http://www.w3.org/2000/svg">
<g clip-path="url(#clip0_1_62)">
<path d="M7.67954 1.11841L0.839844 29.72H7.69423L11.97 11.8373H18.8317L21.3957 1.11841H14.5339H7.67954Z" fill="white"/>
<path d="M35.1052 1.11853H28.2509L25.6869 11.8374L23.9751 18.9936H17.1207L14.5568 29.7202H21.4112H28.2655L32.5413 11.8374L35.1052 1.11853Z" fill="white"/>
<path d="M72.1035 2.85006C72.1089 3.11536 72.0592 3.37872 71.9577 3.62208C71.8563 3.86543 71.7055 4.083 71.5158 4.25984C71.1709 4.61359 70.7065 4.81184 70.2228 4.81184C69.7391 4.81184 69.2747 4.61359 68.9298 4.25984C68.5775 3.90738 68.3723 3.42452 68.3585 2.91558C68.3448 2.40664 68.5236 1.91248 68.8563 1.53989L68.9445 1.4403C69.2893 1.08655 69.7537 0.888306 70.2375 0.888306C70.7212 0.888306 71.1856 1.08655 71.5305 1.4403C71.7203 1.61625 71.8702 1.83403 71.9693 2.07787C72.0684 2.3217 72.1142 2.58548 72.1035 2.85009L72.1035 2.85006ZM41.9824 1.11082H53.3256C56.4626 1.11082 58.9237 2.05322 60.5106 3.64689C61.0853 4.25049 61.5376 4.96859 61.8405 5.7584C62.1435 6.5482 62.2908 7.39353 62.2738 8.24399V8.3283C62.2738 12.052 60.0698 13.9751 57.9246 14.9481C61.1791 15.9748 63.8019 17.9362 63.8019 21.8438V21.9281C63.8019 26.8317 59.8494 29.7355 53.8472 29.7355H41.9824V1.11082ZM52.7966 13.8678C56.514 13.8678 59.1074 12.1056 59.1074 8.73434V8.65767C59.1074 5.83045 56.9475 3.99161 53.0023 3.99161H45.046V13.8601L52.7966 13.8678ZM53.8913 26.8239C58.0495 26.8239 60.6355 24.9085 60.6355 21.6982V21.6215C60.6355 18.5108 58.1229 16.7103 53.3403 16.7103H45.046V26.8239L53.8913 26.8239ZM68.7094 8.58877H71.7362V29.7278H68.7094V8.58877ZM79.7293 23.0237V11.37H75.145V8.61175H79.7293V1.11082H82.7561V8.61175H91.0798V11.37H82.7855V22.6176C82.7855 25.4601 84.0712 27.2683 86.5249 27.2147C88.0007 27.2449 89.4686 26.985 90.8521 26.4485V29.1991C89.2587 29.882 87.54 30.1881 85.8197 30.0955C82.1611 30.0112 79.7587 27.322 79.7587 22.993L79.7293 23.0237ZM95.4658 1.11082H101.975L109.189 13.2089L116.396 1.11082H122.905V29.7278H116.918V11.0482L109.197 23.3072H109.035L101.394 11.2091V29.7508H95.4658V1.11082ZM128.276 1.11082H148.979V6.71162H134.285V12.5193H146.517V18.1201H134.278V24.127H149.17V29.7278H128.276V1.11082ZM160.461 15.1703L151.285 1.11082H158.345L164.105 10.3893L169.909 1.11082H176.771L167.61 15.0937L177.16 29.7278H170.107L163.936 19.9283L157.743 29.7431H150.881L160.461 15.1703Z" fill="white"/>
</g>
<defs>
<clipPath id="clip0_1_62">
<rect width="178" height="31" fill="white"/>
</clipPath>
</defs>
</svg>
