<svg width="21" height="27" viewBox="0 0 21 27" fill="none" xmlns="http://www.w3.org/2000/svg">
<path fill-rule="evenodd" clip-rule="evenodd" d="M14.4111 0C14.4111 0 12.7584 2.86422 14.1905 5.79492C15.6233 8.72557 16.8797 11.0351 16.5921 13.4994C16.5921 13.4994 17.3194 9.50301 21 8.45895C21 8.45895 19.6339 11.0563 20.3827 14.7207C21.1316 18.384 19.4346 25.2228 12.4703 27C12.4703 27 18.6417 23.6916 14.2114 18.3182C14.2114 18.3182 14.1014 20.9611 11.82 21.7486C11.82 21.7486 15.4121 15.5875 10.1229 9.85858C10.1229 9.85858 11.3351 13.8331 7.27971 17.2303C3.22435 20.6275 5.23037 26.0889 7.56632 26.844C7.56632 26.844 -5.17314 21.1153 2.4088 9.30423C2.4088 9.30423 2.67375 11.9905 4.61312 13.0347C4.61312 13.0347 4.32651 1.51112 14.4104 0.00153438L14.4111 0Z" fill="url(#paint0_linear_1_259)"/>
<defs>
<linearGradient id="paint0_linear_1_259" x1="23.2647" y1="13.5" x2="-3.5" y2="13.5" gradientUnits="userSpaceOnUse">
<stop stop-color="#FF694E"/>
<stop offset="1" stop-color="#FF3A15"/>
</linearGradient>
</defs>
</svg>
